<?xml version="1.0" encoding="UTF-8" standalone="no"?>
<svg width="80px" height="80px" viewBox="0 0 80 80" version="1.1" xmlns="http://www.w3.org/2000/svg" xmlns:xlink="http://www.w3.org/1999/xlink">
    <!-- Generator: Sketch 43.2 (39069) - http://www.bohemiancoding.com/sketch -->
    <title>v</title>
    <desc>Created with Sketch.</desc>
    <defs></defs>
    <g id="Page-1" stroke="none" stroke-width="1" fill="none" fill-rule="evenodd">
        <g id="Contact-confirmation" transform="translate(-680.000000, -260.000000)" fill="#FFFFFF">
            <g id="form" transform="translate(0.000000, 100.000000)">
                <g id="v" transform="translate(680.000000, 160.000000)">
                    <g>
                        <path d="M40,76 C59.882251,76 76,59.882251 76,40 C76,20.117749 59.882251,4 40,4 C20.117749,4 4,20.117749 4,40 C4,59.882251 20.117749,76 40,76 Z M40,80 C17.90861,80 0,62.09139 0,40 C0,17.90861 17.90861,0 40,0 C62.09139,0 80,17.90861 80,40 C80,62.09139 62.09139,80 40,80 Z" id="o" fill-rule="nonzero"></path>
                        <path d="M35.0560382,50.1754536 L26.8639285,41.7066999 C26.4359396,41.2656493 25.8743836,41.0225621 25.279795,41.0225621 C24.6852064,41.0225621 24.1236505,41.2656493 23.6970978,41.7066999 C22.7678736,42.6659486 22.7678736,44.2249096 23.6956616,45.1841583 L33.0281177,54.8319581 C33.4273825,55.2438964 34.007609,55.4811613 34.6165597,55.4811613 C35.1680622,55.4811613 35.6779147,55.2948429 36.0642537,54.9542295 L55.3338079,29.1098291 C56.2601597,28.1491249 56.2601597,26.5887082 55.3338079,25.6294596 C54.5812368,24.8521625 53.1435962,24.7866599 52.3292683,25.4780759 L35.0560382,50.1754536 Z"></path>
                    </g>
                </g>
            </g>
        </g>
    </g>
</svg>